<?xml version="1.0" encoding="UTF-8"?>
<svg id="Layer_1" data-name="Layer 1" xmlns="http://www.w3.org/2000/svg" viewBox="0 0 20 20">
  <path d="M9.35,0s-.18.02-.3.03C6.2.29,3.54,1.82,1.86,4.18.92,5.49.32,6.97.09,8.55c-.08.55-.09.71-.09,1.46s0,.91.09,1.46c.54,3.76,3.22,6.91,6.84,8.08.65.21,1.33.35,2.11.44.3.03,1.61.03,1.92,0,1.34-.15,2.48-.48,3.6-1.05.17-.09.21-.11.18-.13-.02-.01-.75-.99-1.63-2.18l-1.6-2.16-2-2.97c-1.1-1.63-2.01-2.96-2.02-2.96,0,0-.02,1.32-.02,2.92,0,2.82,0,2.93-.04,3-.05.1-.09.13-.17.18-.06.03-.12.04-.41.04h-.34l-.09-.06c-.06-.04-.1-.09-.13-.14l-.04-.09v-3.92s0-3.92,0-3.92l.06-.08s.1-.09.14-.12c.08-.04.11-.04.45-.04.4,0,.47.02.57.13.03.03,1.11,1.67,2.41,3.63,1.3,1.97,3.07,4.66,3.95,5.98l1.58,2.4.08-.05c.71-.46,1.46-1.12,2.05-1.8,1.26-1.45,2.08-3.22,2.35-5.11.08-.55.09-.71.09-1.46s0-.91-.09-1.46c-.54-3.76-3.22-6.91-6.84-8.08-.64-.21-1.32-.35-2.08-.44-.19-.02-1.48-.04-1.64-.03h0ZM13.44,6.05c.09.05.17.14.2.23.02.05.02,1.14.02,3.59v3.51s-.63-.95-.63-.95l-.62-.95v-2.55c0-1.65,0-2.58.02-2.63.03-.11.1-.2.19-.25.08-.04.11-.04.42-.04.29,0,.34,0,.4.04Z" style="fill: #0b72ba;"/>
</svg>