<?xml version="1.0" encoding="UTF-8"?>
<svg id="Layer_1" data-name="Layer 1" xmlns="http://www.w3.org/2000/svg" viewBox="0 0 20 21.99">
  <path d="M19.15,4.89L10.85.19c-.54-.25-1.16-.25-1.7,0L.85,4.89c-.52.3-.84.85-.85,1.45v9.3c0,.6.33,1.15.85,1.45l2.2,1.25c.57.34,1.23.51,1.9.5,1.55,0,2.45-.95,2.45-2.55V7.14c0-.14-.11-.25-.25-.25h-1.05c-.14,0-.25.11-.25.25v9.15c0,.75-.75,1.45-1.95.85l-2.3-1.3c-.06-.05-.1-.12-.1-.2V6.34c0-.09.04-.18.1-.25L9.85,1.44h.3l8.25,4.65c.06.07.1.16.1.25v9.3c0,.08-.04.15-.1.2l-8.25,4.65c-.09.05-.21.05-.3,0l-2.1-1.2c-.06-.05-.14-.05-.2,0l-1.25.55c-.15.05-.35.1.05.35l2.8,1.55c.52.34,1.18.34,1.7,0l8.3-4.65c.52-.3.84-.85.85-1.45V6.34c0-.6-.33-1.15-.85-1.45Z" style="fill: #0b72ba;"/>
  <path d="M12.55,14.14c-2.2,0-2.65-.5-2.85-1.55,0-.11-.09-.2-.2-.2h-1.1c-.11,0-.2.09-.2.2,0,1.35.75,3,4.35,3,2.6,0,4.1-1,4.1-2.75s-1.2-2.25-3.75-2.55-2.8-.5-2.8-1.1.2-1.1,2.1-1.1,2.35.35,2.6,1.45c.02.12.13.2.25.2h1.05l.2-.1s.05-.1.05-.15c-.15-1.95-1.5-2.85-4.15-2.85s-3.75,1-3.75,2.6,1.4,2.25,3.65,2.5,2.95.6,2.95,1.15-.75,1.25-2.5,1.25Z" style="fill: #0b72ba;"/>
</svg>