<?xml version="1.0" encoding="UTF-8"?>
<svg id="Layer_1" data-name="Layer 1" xmlns="http://www.w3.org/2000/svg" viewBox="0 0 20 12">
  <path d="M10,0c-2.67,0-4.33,1.33-5,4,1-1.33,2.17-1.83,3.5-1.5.76.19,1.3.74,1.91,1.35.98,1,2.12,2.15,4.59,2.15,2.67,0,4.33-1.33,5-4-1,1.33-2.17,1.83-3.5,1.5-.76-.19-1.3-.74-1.91-1.35-.98-1-2.12-2.15-4.59-2.15ZM5,6c-2.67,0-4.33,1.33-5,4,1-1.33,2.17-1.83,3.5-1.5.76.19,1.3.74,1.91,1.35.98,1,2.12,2.15,4.59,2.15,2.67,0,4.33-1.33,5-4-1,1.33-2.17,1.83-3.5,1.5-.76-.19-1.3-.74-1.91-1.35-.98-1-2.12-2.15-4.59-2.15Z" style="fill: #0b72ba; fill-rule: evenodd;"/>
</svg>