<?xml version="1.0" encoding="UTF-8"?>
<svg id="Layer_1" data-name="Layer 1" xmlns="http://www.w3.org/2000/svg" viewBox="0 0 20 20">
  <path d="M10,0C4.5,0,0,4.5,0,10s4.5,10,10,10,10-4.5,10-10S15.5,0,10,0ZM4.43,15.57c-1.5-1.5-2.29-3.5-2.29-5.43l7.79,7.71c-2-.07-4-.79-5.5-2.29ZM11.71,17.64L2.36,8.29c.79-3.5,3.93-6.14,7.64-6.14,2.64,0,4.93,1.29,6.36,3.21l-1.07.93c-1.21-1.64-3.14-2.71-5.29-2.71-2.79,0-5.14,1.79-6.07,4.29l8.21,8.21c2.07-.71,3.64-2.5,4.14-4.64h-3.43v-1.43h5c0,3.71-2.64,6.86-6.14,7.64Z" style="fill: #0b72ba;"/>
</svg>