<?xml version="1.0" encoding="utf-8"?>
<!-- Generator: Adobe Illustrator 16.0.0, SVG Export Plug-In . SVG Version: 6.00 Build 0)  -->
<!DOCTYPE svg PUBLIC "-//W3C//DTD SVG 1.1//EN" "http://www.w3.org/Graphics/SVG/1.1/DTD/svg11.dtd">
<svg version="1.1" id="Layer_1" xmlns="http://www.w3.org/2000/svg" xmlns:xlink="http://www.w3.org/1999/xlink" x="0px" y="0px"
	 width="151px" height="17px" viewBox="0 0 151 17" enable-background="new 0 0 151 17" xml:space="preserve">
<path d="M6.462,4.637C6.552,4.501,6.649,4.4,6.754,4.332C6.86,4.265,6.974,4.23,7.095,4.23c0.211,0,0.383,0.081,0.517,0.242
	c0.133,0.162,0.2,0.435,0.2,0.82v1.359c0,0.386-0.067,0.66-0.2,0.824C7.479,7.641,7.306,7.723,7.095,7.723
	c-0.192,0-0.347-0.06-0.464-0.18c-0.117-0.12-0.204-0.344-0.26-0.672C6.338,6.652,6.273,6.483,6.174,6.363
	c-0.192-0.234-0.46-0.422-0.805-0.563C5.025,5.66,4.679,5.59,4.332,5.59c-0.431,0-0.827,0.104-1.188,0.313
	c-0.361,0.208-0.68,0.547-0.957,1.016C1.911,7.387,1.773,7.944,1.773,8.59v1.039c0,0.771,0.252,1.414,0.756,1.93
	c0.503,0.516,1.203,0.773,2.099,0.773c0.534,0,0.987-0.081,1.357-0.242c0.216-0.094,0.445-0.278,0.689-0.555
	c0.15-0.167,0.268-0.274,0.352-0.324c0.084-0.049,0.181-0.074,0.289-0.074c0.192,0,0.361,0.081,0.506,0.242
	c0.145,0.162,0.218,0.352,0.218,0.57s-0.099,0.453-0.295,0.703c-0.286,0.365-0.654,0.651-1.104,0.859
	c-0.604,0.281-1.272,0.422-2.004,0.422c-0.853,0-1.622-0.195-2.306-0.586c-0.553-0.313-1.024-0.806-1.413-1.48
	c-0.389-0.674-0.583-1.41-0.583-2.207V8.574c0-0.833,0.174-1.61,0.523-2.332c0.349-0.721,0.833-1.277,1.452-1.668
	s1.275-0.586,1.969-0.586c0.417,0,0.808,0.054,1.171,0.16C5.81,4.255,6.148,4.418,6.462,4.637z"/>
<path d="M16.588,10.285c0,0.615-0.154,1.21-0.46,1.785c-0.307,0.576-0.764,1.034-1.371,1.375c-0.607,0.341-1.241,0.512-1.902,0.512
	c-0.656,0-1.284-0.168-1.884-0.504s-1.057-0.793-1.371-1.371S9.127,10.9,9.127,10.27c0-0.641,0.16-1.27,0.479-1.887
	c0.318-0.617,0.777-1.103,1.375-1.457c0.598-0.354,1.222-0.531,1.874-0.531c0.656,0,1.288,0.181,1.895,0.543
	c0.607,0.362,1.065,0.849,1.375,1.461C16.433,9.011,16.588,9.64,16.588,10.285z M15.146,10.293c0-0.516-0.167-0.989-0.5-1.422
	c-0.455-0.583-1.052-0.875-1.793-0.875c-0.651,0-1.195,0.232-1.631,0.695c-0.436,0.464-0.654,1-0.654,1.609
	c0,0.5,0.221,0.968,0.661,1.402c0.44,0.435,0.982,0.652,1.624,0.652c0.647,0,1.191-0.217,1.631-0.652
	C14.926,11.269,15.146,10.798,15.146,10.293z"/>
<path d="M24.793,3.566v8.531h0.246c0.342,0,0.588,0.074,0.738,0.223s0.225,0.343,0.225,0.582c0,0.234-0.074,0.426-0.222,0.574
	c-0.147,0.148-0.395,0.223-0.742,0.223h-1.688v-0.391c-0.328,0.214-0.671,0.375-1.03,0.484c-0.358,0.109-0.73,0.164-1.114,0.164
	c-1.083,0-1.955-0.348-2.616-1.043c-0.661-0.695-0.991-1.561-0.991-2.598c0-1.083,0.347-2.008,1.041-2.773s1.54-1.148,2.538-1.148
	c0.375,0,0.743,0.064,1.104,0.191C22.644,6.714,23,6.905,23.352,7.16V5.168h-0.246c-0.347,0-0.594-0.074-0.742-0.223
	c-0.148-0.148-0.222-0.34-0.222-0.574c0-0.239,0.074-0.434,0.222-0.582c0.147-0.148,0.395-0.223,0.742-0.223H24.793z M23.352,10.363
	c0-0.661-0.208-1.221-0.626-1.68c-0.417-0.458-0.928-0.688-1.533-0.688c-0.6,0-1.108,0.229-1.526,0.688
	c-0.417,0.458-0.625,1.011-0.625,1.656c0,0.589,0.188,1.072,0.563,1.449c0.375,0.378,0.904,0.566,1.589,0.566
	c0.68,0,1.209-0.188,1.589-0.566C23.162,11.412,23.352,10.937,23.352,10.363z"/>
<path d="M33.745,10.965h-5.914c0.15,0.417,0.416,0.753,0.798,1.008c0.382,0.255,0.898,0.383,1.55,0.383
	c0.534,0,1.245-0.127,2.13-0.383c0.366-0.104,0.619-0.156,0.759-0.156c0.192,0,0.354,0.076,0.485,0.227
	c0.131,0.151,0.197,0.341,0.197,0.57c0,0.208-0.07,0.386-0.211,0.531c-0.188,0.193-0.645,0.376-1.371,0.551
	s-1.425,0.262-2.095,0.262c-1.153,0-2.076-0.362-2.767-1.086c-0.691-0.724-1.037-1.614-1.037-2.672c0-1.125,0.374-2.04,1.122-2.746
	C28.139,6.748,29,6.395,29.976,6.395c0.586,0,1.124,0.115,1.614,0.344c0.49,0.229,0.854,0.477,1.093,0.742
	c0.337,0.386,0.616,0.862,0.837,1.43c0.15,0.396,0.225,0.854,0.225,1.375V10.965z M32.148,9.363
	c-0.221-0.458-0.509-0.801-0.865-1.027c-0.356-0.227-0.781-0.34-1.273-0.34c-0.487,0-0.909,0.113-1.266,0.34
	c-0.356,0.227-0.647,0.569-0.872,1.027H32.148z"/>
<path d="M42.077,3.566v8.531h0.246c0.342,0,0.588,0.074,0.738,0.223s0.225,0.343,0.225,0.582c0,0.234-0.074,0.426-0.222,0.574
	c-0.147,0.148-0.395,0.223-0.742,0.223h-1.688v-0.391c-0.328,0.214-0.671,0.375-1.03,0.484c-0.358,0.109-0.73,0.164-1.114,0.164
	c-1.083,0-1.955-0.348-2.616-1.043c-0.661-0.695-0.991-1.561-0.991-2.598c0-1.083,0.347-2.008,1.041-2.773s1.54-1.148,2.538-1.148
	c0.375,0,0.743,0.064,1.104,0.191c0.361,0.128,0.717,0.319,1.069,0.574V5.168h-0.246c-0.347,0-0.594-0.074-0.742-0.223
	c-0.148-0.148-0.222-0.34-0.222-0.574c0-0.239,0.074-0.434,0.222-0.582c0.147-0.148,0.395-0.223,0.742-0.223H42.077z M40.635,10.363
	c0-0.661-0.208-1.221-0.626-1.68c-0.417-0.458-0.928-0.688-1.533-0.688c-0.6,0-1.108,0.229-1.526,0.688
	c-0.417,0.458-0.625,1.011-0.625,1.656c0,0.589,0.188,1.072,0.563,1.449c0.375,0.378,0.904,0.566,1.589,0.566
	c0.68,0,1.209-0.188,1.589-0.566C40.445,11.412,40.635,10.937,40.635,10.363z"/>
<path d="M53.826,3.895v4.352c0.712-1.031,1.573-1.547,2.581-1.547c0.861,0,1.6,0.348,2.215,1.043c0.613,0.695,0.92,1.548,0.92,2.559
	c0,1.021-0.311,1.886-0.932,2.594c-0.621,0.708-1.355,1.063-2.203,1.063c-1.031,0-1.893-0.516-2.581-1.547v1.289H52.44
	c-0.141,0-0.24-0.031-0.302-0.094s-0.091-0.141-0.091-0.234c0-0.099,0.029-0.178,0.091-0.238c0.062-0.06,0.161-0.09,0.302-0.09
	h0.795V4.559H52.44c-0.141,0-0.24-0.031-0.302-0.094s-0.091-0.143-0.091-0.242c0-0.094,0.029-0.172,0.091-0.234
	S52.3,3.895,52.44,3.895H53.826z M58.952,10.332c0-0.828-0.256-1.53-0.767-2.105c-0.511-0.575-1.108-0.863-1.793-0.863
	S55.11,7.651,54.6,8.227c-0.511,0.576-0.767,1.277-0.767,2.105s0.256,1.53,0.767,2.105c0.511,0.576,1.108,0.863,1.793,0.863
	s1.282-0.288,1.793-0.863C58.696,11.862,58.952,11.16,58.952,10.332z"/>
<path d="M64.731,13.699l-2.742-6.102h-0.176c-0.141,0-0.241-0.031-0.302-0.094c-0.062-0.063-0.091-0.141-0.091-0.234
	c0-0.067,0.015-0.129,0.045-0.184c0.031-0.055,0.07-0.094,0.119-0.117c0.05-0.023,0.126-0.035,0.229-0.035h1.617
	c0.141,0,0.242,0.031,0.303,0.094s0.092,0.144,0.092,0.242c0,0.094-0.031,0.172-0.092,0.234s-0.162,0.094-0.303,0.094h-0.794
	l2.411,5.383l2.377-5.383H66.63c-0.141,0-0.241-0.031-0.302-0.094c-0.062-0.063-0.091-0.143-0.091-0.242
	c0-0.094,0.029-0.172,0.091-0.234c0.061-0.063,0.161-0.094,0.302-0.094h1.611c0.145,0,0.248,0.031,0.309,0.094
	s0.092,0.144,0.092,0.242c0,0.068-0.02,0.13-0.057,0.188c-0.037,0.058-0.08,0.095-0.127,0.113c-0.047,0.019-0.178,0.027-0.393,0.027
	l-3.741,8.461h0.921c0.141,0,0.242,0.03,0.303,0.09c0.061,0.06,0.092,0.139,0.092,0.238c0,0.094-0.031,0.172-0.092,0.234
	s-0.162,0.094-0.303,0.094h-3.402c-0.141,0-0.242-0.03-0.303-0.09c-0.061-0.06-0.092-0.14-0.092-0.238
	c0-0.099,0.031-0.179,0.092-0.238c0.061-0.06,0.162-0.09,0.303-0.09h1.849L64.731,13.699z"/>
<path d="M80.698,0.48h2.637v9.844c0,0.905-0.18,1.704-0.541,2.397c-0.359,0.693-0.868,1.229-1.524,1.606s-1.397,0.566-2.224,0.566
	c-1.354,0-2.408-0.382-3.164-1.147S74.748,11.9,74.748,10.5h2.654c0,0.697,0.132,1.211,0.396,1.543s0.68,0.498,1.248,0.498
	c0.504,0,0.905-0.192,1.204-0.576s0.448-0.931,0.448-1.641V0.48z"/>
<path d="M94.192,8.518H89.13v3.828h5.941v2.354h-8.578V0.48h8.561v2.373H89.13v3.389h5.063V8.518z"/>
<path d="M104.155,10.969c0-0.553-0.176-0.978-0.527-1.274s-0.984-0.609-1.898-0.938s-1.639-0.653-2.172-0.972
	c-1.453-0.873-2.18-2.047-2.18-3.525c0-0.768,0.195-1.454,0.585-2.056s0.949-1.073,1.679-1.411s1.549-0.508,2.457-0.508
	c0.914,0,1.729,0.184,2.443,0.552s1.27,0.887,1.665,1.558S106.8,3.827,106.8,4.68h-2.637c0-0.651-0.184-1.157-0.553-1.519
	s-0.889-0.542-1.557-0.542c-0.645,0-1.145,0.151-1.502,0.454s-0.537,0.702-0.537,1.196c0,0.462,0.21,0.85,0.629,1.162
	s1.035,0.605,1.85,0.879c1.5,0.501,2.594,1.123,3.279,1.865s1.027,1.667,1.027,2.773c0,1.23-0.418,2.196-1.256,2.896
	s-1.967,1.05-3.385,1.05c-0.984,0-1.881-0.2-2.689-0.601s-1.425-0.949-1.85-1.646s-0.637-1.504-0.637-2.422h2.645
	c0,1.569,0.844,2.354,2.531,2.354c0.627,0,1.117-0.142,1.469-0.425S104.155,11.477,104.155,10.969z"/>
<path d="M116.12,10.969c0-0.553-0.176-0.978-0.527-1.274s-0.984-0.609-1.898-0.938s-1.638-0.653-2.171-0.972
	c-1.453-0.873-2.18-2.047-2.18-3.525c0-0.768,0.194-1.454,0.585-2.056c0.389-0.602,0.949-1.073,1.678-1.411
	c0.73-0.338,1.549-0.508,2.457-0.508c0.914,0,1.729,0.184,2.443,0.552s1.27,0.887,1.666,1.558c0.395,0.67,0.593,1.432,0.593,2.285
	h-2.637c0-0.651-0.185-1.157-0.554-1.519s-0.888-0.542-1.556-0.542c-0.645,0-1.146,0.151-1.503,0.454s-0.536,0.702-0.536,1.196
	c0,0.462,0.21,0.85,0.628,1.162c0.42,0.313,1.036,0.605,1.851,0.879c1.5,0.501,2.593,1.123,3.278,1.865s1.028,1.667,1.028,2.773
	c0,1.23-0.419,2.196-1.257,2.896s-1.966,1.05-3.384,1.05c-0.984,0-1.881-0.2-2.689-0.601s-1.425-0.949-1.851-1.646
	c-0.424-0.697-0.637-1.504-0.637-2.422h2.646c0,1.569,0.844,2.354,2.531,2.354c0.627,0,1.116-0.142,1.468-0.425
	S116.12,11.477,116.12,10.969z"/>
<path d="M124.253,14.699h-2.637V0.48h2.637V14.699z"/>
<path d="M137.643,9.963c-0.1,1.53-0.608,2.734-1.524,3.613c-0.918,0.879-2.126,1.318-3.626,1.318c-1.641,0-2.931-0.614-3.872-1.841
	c-0.939-1.227-1.41-2.912-1.41-5.054V7.131c0-1.367,0.217-2.572,0.65-3.613s1.053-1.841,1.859-2.397
	c0.805-0.557,1.741-0.835,2.808-0.835c1.477,0,2.666,0.439,3.568,1.318s1.424,2.113,1.564,3.701h-2.637
	c-0.064-0.918-0.294-1.583-0.69-1.997c-0.395-0.414-0.997-0.62-1.806-0.62c-0.879,0-1.536,0.35-1.974,1.05
	c-0.436,0.7-0.66,1.786-0.672,3.257v1.074c0,1.537,0.209,2.66,0.629,3.369c0.418,0.709,1.079,1.064,1.981,1.064
	c0.814,0,1.423-0.207,1.823-0.62c0.402-0.414,0.632-1.053,0.69-1.919H137.643z"/>
<path d="M147.499,11.77h-4.623l-0.879,2.93h-2.805l4.764-14.219h2.443l4.791,14.219h-2.805L147.499,11.77z M143.587,9.396h3.199
	l-1.607-5.322L143.587,9.396z"/>
<rect x="-0.5" y="1" width="77" height="1"/>
</svg>
