<?xml version="1.0" encoding="UTF-8"?>
<svg id="Layer_1" data-name="Layer 1" xmlns="http://www.w3.org/2000/svg" viewBox="0 0 19.66 19.66">
  <path d="M0,19.66h19.66V0H0v19.66ZM10.4,16.75c-.29.59-.84.98-1.49,1.16-.99.23-1.93.1-2.63-.33-.47-.29-.84-.73-1.09-1.24l1.5-.92s.05.08.11.17c.19.32.35.55.68.71.32.11,1.02.18,1.29-.38.17-.29.11-1.2.11-2.21,0-1.59,0-3.17,0-4.75h1.84c0,1.73,0,3.37,0,5.06,0,1.03.09,1.96-.33,2.73M18.04,16.23c-.64,2.19-4.21,2.26-5.64.81-.3-.34-.49-.52-.67-.91q.76-.43,1.5-.86c.4.61.77.95,1.44,1.09.9.11,1.81-.2,1.61-1.16-.21-.78-1.85-.97-2.97-1.81-1.13-.76-1.4-2.61-.47-3.67.31-.39.84-.68,1.4-.82l.58-.07c1.11-.02,1.81.27,2.32.84.14.14.26.3.47.63-.59.38-.59.38-1.44.92-.18-.39-.48-.64-.8-.74-.5-.15-1.12.01-1.25.54-.04.16-.03.31.04.58.2.46.87.65,1.48.93,1.74.7,2.32,1.46,2.46,2.36.14.77-.03,1.28-.06,1.35" style="fill: #0b72ba;"/>
</svg>