<svg viewBox="0 0 23.51 21" xmlns="http://www.w3.org/2000/svg"><path d="m19.89 6.97c-.41-.15-.85-.3-1.3-.43.11-.45.21-.9.28-1.33.39-2.48-.04-4.23-1.24-4.9-.36-.21-.75-.3-1.2-.3-1.32 0-2.99.98-4.68 2.61-1.69-1.63-3.36-2.61-4.68-2.61-.45 0-.85.09-1.2.3-1.2.7-1.63 2.44-1.24 4.9.08.43.17.88.28 1.33-.45.13-.88.26-1.29.43-2.35.9-3.62 2.14-3.62 3.53s1.29 2.63 3.62 3.53c.41.15.84.3 1.29.43-.11.45-.21.9-.28 1.33-.39 2.48.04 4.23 1.24 4.9.36.2.75.3 1.2.3 1.33 0 3.01-.98 4.68-2.61 1.69 1.63 3.36 2.61 4.68 2.61.45 0 .84-.1 1.2-.3 1.2-.69 1.63-2.44 1.24-4.9-.08-.43-.17-.88-.28-1.33.45-.13.88-.26 1.3-.43 2.35-.9 3.62-2.14 3.62-3.53s-1.28-2.63-3.62-3.53m-2.78-5.73c.77.45 1.03 1.84.71 3.81-.06.4-.15.81-.26 1.24-.98-.23-2.01-.38-3.1-.47-.64-.9-1.3-1.71-1.95-2.44 1.39-1.37 2.8-2.31 3.95-2.31.24 0 .47.06.66.17m-2.11 11.14c-.34.6-.73 1.2-1.15 1.8-.69.06-1.39.07-2.1.07s-1.43-.02-2.1-.07c-.41-.6-.79-1.2-1.13-1.8-.36-.62-.69-1.26-1-1.88.3-.62.64-1.26 1-1.88.34-.6.73-1.2 1.15-1.8.69-.06 1.39-.08 2.1-.08s1.43.02 2.1.08c.41.6.79 1.2 1.13 1.8.36.62.69 1.26.99 1.88-.32.62-.64 1.24-.99 1.88m1.56-.62c.28.66.51 1.3.71 1.94-.64.15-1.31.26-2.03.36.23-.36.47-.73.68-1.13.22-.39.43-.79.64-1.17m-4.81 5.09c-.45-.49-.88-1.02-1.3-1.56.43.02.86.04 1.3.04s.86-.02 1.29-.04c-.41.54-.84 1.07-1.29 1.56m-3.5-2.82c-.71-.09-1.39-.21-2.03-.36.21-.62.43-1.28.71-1.93.21.38.41.77.64 1.14.22.41.45.77.68 1.15m-1.31-4.79c-.28-.66-.51-1.3-.71-1.94.64-.15 1.31-.26 2.03-.36-.23.36-.47.73-.68 1.13-.23.39-.43.79-.64 1.17m4.81-5.09c.45.49.88 1.01 1.29 1.56-.43-.02-.86-.04-1.29-.04s-.86.02-1.3.04c.41-.54.85-1.07 1.3-1.56m4.17 3.95-.68-1.13c.71.09 1.39.21 2.03.36-.21.62-.43 1.28-.71 1.93-.21-.39-.41-.79-.64-1.16m-10.24-3.05c-.32-1.97-.06-3.36.71-3.81.19-.11.41-.17.66-.17 1.13 0 2.54.92 3.95 2.31-.66.71-1.32 1.54-1.96 2.44-1.09.1-2.12.26-3.1.47-.11-.43-.19-.85-.26-1.24m-4.64 5.45c0-.88 1.07-1.82 2.95-2.52.38-.15.79-.28 1.2-.39.3.94.68 1.94 1.13 2.93-.45 1-.85 1.97-1.13 2.91-2.59-.75-4.15-1.88-4.15-2.93m5.35 9.26c-.77-.45-1.03-1.84-.71-3.81.06-.4.15-.81.26-1.24.98.22 2.01.37 3.1.47.64.9 1.29 1.71 1.96 2.44-1.39 1.37-2.8 2.31-3.95 2.31-.24 0-.47-.06-.66-.17m11.42-3.81c.32 1.97.06 3.36-.71 3.81-.19.11-.41.17-.66.17-1.13 0-2.54-.92-3.95-2.31.66-.71 1.32-1.54 1.95-2.44 1.09-.09 2.12-.26 3.1-.47.11.43.19.84.26 1.24m1.7-2.93c-.38.15-.79.28-1.2.39-.3-.94-.68-1.93-1.13-2.93.45-1 .85-1.97 1.13-2.91 2.59.75 4.15 1.88 4.15 2.93 0 .88-1.09 1.82-2.95 2.52m-5.81-2.45c0 .91-.74 1.65-1.65 1.65s-1.65-.74-1.65-1.65.74-1.65 1.65-1.65 1.65.74 1.65 1.65" fill="#0b72ba"/></svg>