<?xml version="1.0" encoding="utf-8"?>
<!-- Generator: Adobe Illustrator 16.0.0, SVG Export Plug-In . SVG Version: 6.00 Build 0)  -->
<!DOCTYPE svg PUBLIC "-//W3C//DTD SVG 1.1//EN" "http://www.w3.org/Graphics/SVG/1.1/DTD/svg11.dtd">
<svg version="1.1" id="Layer_1" xmlns="http://www.w3.org/2000/svg" xmlns:xlink="http://www.w3.org/1999/xlink" x="0px" y="0px"
	 width="30px" height="30px" viewBox="0 0 30 30" enable-background="new 0 0 30 30" xml:space="preserve">
<g>
	<g>
		<path d="M22.869,0.973h5.883v19.763c0,1.813-0.402,3.422-1.21,4.813c-0.802,1.393-1.937,2.467-3.397,3.225
			c-1.463,0.758-3.119,1.139-4.959,1.139c-3.021,0-5.373-0.768-7.061-2.307c-1.686-1.531-2.529-3.703-2.529-6.518h5.921
			c0,1.404,0.293,2.432,0.883,3.096c0.588,0.67,1.514,1.004,2.785,1.004c1.123,0,2.018-0.388,2.682-1.155
			c0.668-0.771,1.004-1.868,1.004-3.296L22.869,0.973L22.869,0.973z"/>
	</g>
	<g>
		<path d="M9.563,5.896v3.071c0.56-0.73,1.23-1.094,2.023-1.094c0.678,0,1.254,0.243,1.738,0.737
			c0.479,0.488,0.718,1.091,0.718,1.804c0,0.72-0.243,1.331-0.726,1.832c-0.49,0.497-1.067,0.749-1.731,0.749
			c-0.81,0-1.484-0.363-2.023-1.091v0.911H8.475c-0.108,0-0.188-0.024-0.236-0.069c-0.049-0.043-0.074-0.097-0.074-0.163
			c0-0.071,0.025-0.128,0.074-0.168c0.049-0.042,0.128-0.064,0.236-0.064h0.622v-5.99H8.475c-0.108,0-0.188-0.019-0.236-0.063
			C8.19,6.254,8.165,6.196,8.165,6.127S8.19,6.005,8.239,5.961c0.049-0.047,0.128-0.066,0.236-0.066L9.563,5.896L9.563,5.896z
			 M13.582,10.437c0-0.583-0.199-1.079-0.604-1.484c-0.397-0.406-0.869-0.61-1.402-0.61c-0.539,0-1.004,0.204-1.408,0.61
			c-0.4,0.405-0.601,0.901-0.601,1.484s0.201,1.079,0.601,1.484c0.404,0.408,0.87,0.61,1.408,0.61c0.533,0,1.004-0.203,1.402-0.61
			C13.383,11.516,13.582,11.021,13.582,10.437z"/>
		<path d="M18.113,12.815l-2.148-4.307h-0.134c-0.115,0-0.192-0.022-0.243-0.066c-0.046-0.044-0.07-0.1-0.07-0.166
			c0-0.05,0.015-0.091,0.035-0.13c0.024-0.04,0.055-0.066,0.096-0.083c0.035-0.015,0.1-0.025,0.184-0.025h1.264
			c0.111,0,0.189,0.022,0.235,0.066s0.073,0.1,0.073,0.172c0,0.065-0.027,0.122-0.073,0.166c-0.047,0.043-0.124,0.066-0.235,0.066
			h-0.621l1.892,3.799l1.86-3.799h-0.619c-0.113,0-0.194-0.022-0.235-0.066c-0.056-0.044-0.075-0.103-0.075-0.173
			c0-0.064,0.02-0.12,0.075-0.164c0.042-0.044,0.122-0.065,0.235-0.065h1.26c0.113,0,0.195,0.021,0.244,0.065
			c0.046,0.044,0.068,0.1,0.068,0.172c0,0.048-0.014,0.093-0.041,0.132c-0.031,0.042-0.063,0.067-0.102,0.08
			C21,8.501,20.896,8.509,20.73,8.509l-2.938,5.971h0.724c0.111,0,0.19,0.022,0.238,0.065c0.047,0.042,0.071,0.097,0.071,0.166
			c0,0.066-0.024,0.123-0.071,0.167c-0.048,0.043-0.127,0.066-0.238,0.066h-2.668c-0.109,0-0.188-0.022-0.236-0.064
			c-0.049-0.045-0.074-0.097-0.074-0.168c0-0.069,0.025-0.125,0.074-0.166c0.049-0.043,0.128-0.065,0.236-0.065h1.448L18.113,12.815
			z"/>
	</g>
	<polygon points="3.498,30 1.248,30 1.248,0 19.248,0 19.248,2.25 3.498,2.25 	"/>
</g>
</svg>
